<?xml version="1.0" encoding="utf-8"?>
<!-- Generator: Adobe Illustrator 14.0.0, SVG Export Plug-In . SVG Version: 6.00 Build 43363)  -->
<!DOCTYPE svg PUBLIC "-//W3C//DTD SVG 1.1//EN" "http://www.w3.org/Graphics/SVG/1.1/DTD/svg11.dtd">
<svg version="1.1" id="图层_1" xmlns="http://www.w3.org/2000/svg" xmlns:xlink="http://www.w3.org/1999/xlink" x="0px" y="0px"
	 width="33px" height="32px" viewBox="0 0 33 32" enable-background="new 0 0 33 32" xml:space="preserve">
<g>
	<radialGradient id="SVGID_1_" cx="21.865" cy="8.0972" r="0.7819" gradientUnits="userSpaceOnUse">
		<stop  offset="0" style="stop-color:#EFF2F1;stop-opacity:0.62"/>
		<stop  offset="0.184" style="stop-color:#DFE1E9;stop-opacity:0.7825"/>
		<stop  offset="0.4303" style="stop-color:#C4C5DC"/>
		<stop  offset="0.6485" style="stop-color:#C2C3DC;stop-opacity:0.9956"/>
		<stop  offset="1" style="stop-color:#909CD0;stop-opacity:0.89"/>
	</radialGradient>
	<path fill="url(#SVGID_1_)" d="M21.267,7.67c-0.142,0-0.278,0.024-0.405,0.073c-0.469,0.166-0.802,0.61-0.802,1.133
		c0,0.645,0.508,1.172,1.149,1.206c0.019,0,0.038,0,0.058,0c0.317,0,0.61-0.127,0.825-0.332c0.234-0.215,0.381-0.527,0.381-0.874
		C22.473,8.212,21.936,7.67,21.267,7.67z"/>
	<radialGradient id="SVGID_2_" cx="16.9758" cy="11.0566" r="0.7823" gradientUnits="userSpaceOnUse">
		<stop  offset="0" style="stop-color:#EFF2F1;stop-opacity:0.62"/>
		<stop  offset="0.184" style="stop-color:#DFE1E9;stop-opacity:0.7825"/>
		<stop  offset="0.4303" style="stop-color:#C4C5DC"/>
		<stop  offset="0.6485" style="stop-color:#C2C3DC;stop-opacity:0.9956"/>
		<stop  offset="1" style="stop-color:#909CD0;stop-opacity:0.89"/>
	</radialGradient>
	<path fill="url(#SVGID_2_)" d="M16.378,10.629c-0.142,0-0.278,0.025-0.405,0.074c-0.469,0.166-0.802,0.61-0.802,1.133
		c0,0.645,0.508,1.172,1.148,1.207c0.02,0,0.04,0,0.059,0c0.317,0,0.611-0.127,0.826-0.333c0.234-0.215,0.381-0.527,0.381-0.874
		C17.585,11.172,17.047,10.629,16.378,10.629z"/>
	<radialGradient id="SVGID_3_" cx="12.3108" cy="17.5303" r="0.7816" gradientUnits="userSpaceOnUse">
		<stop  offset="0" style="stop-color:#EFF2F1;stop-opacity:0.62"/>
		<stop  offset="0.184" style="stop-color:#DFE1E9;stop-opacity:0.7825"/>
		<stop  offset="0.4303" style="stop-color:#C4C5DC"/>
		<stop  offset="0.6485" style="stop-color:#C2C3DC;stop-opacity:0.9956"/>
		<stop  offset="1" style="stop-color:#909CD0;stop-opacity:0.89"/>
	</radialGradient>
	<path fill="url(#SVGID_3_)" d="M11.713,17.103c-0.141,0-0.278,0.023-0.405,0.072c-0.469,0.167-0.801,0.61-0.801,1.134
		c0,0.645,0.508,1.172,1.148,1.206c0.02,0,0.04,0,0.059,0c0.317,0,0.611-0.127,0.826-0.332c0.234-0.216,0.381-0.527,0.381-0.874
		C12.92,17.645,12.382,17.103,11.713,17.103z"/>
	<radialGradient id="SVGID_4_" cx="21.4685" cy="17.5303" r="0.7816" gradientUnits="userSpaceOnUse">
		<stop  offset="0" style="stop-color:#EFF2F1;stop-opacity:0.62"/>
		<stop  offset="0.184" style="stop-color:#DFE1E9;stop-opacity:0.7825"/>
		<stop  offset="0.4303" style="stop-color:#C4C5DC"/>
		<stop  offset="0.6485" style="stop-color:#C2C3DC;stop-opacity:0.9956"/>
		<stop  offset="1" style="stop-color:#909CD0;stop-opacity:0.89"/>
	</radialGradient>
	<path fill="url(#SVGID_4_)" d="M20.872,17.103c-0.142,0-0.278,0.023-0.406,0.072c-0.469,0.167-0.801,0.61-0.801,1.134
		c0,0.645,0.508,1.172,1.148,1.206c0.019,0,0.038,0,0.059,0c0.317,0,0.61-0.127,0.824-0.332c0.235-0.216,0.382-0.527,0.382-0.874
		C22.078,17.645,21.541,17.103,20.872,17.103z"/>
	<radialGradient id="SVGID_5_" cx="11.8225" cy="8.0972" r="0.7819" gradientUnits="userSpaceOnUse">
		<stop  offset="0" style="stop-color:#EFF2F1;stop-opacity:0.62"/>
		<stop  offset="0.184" style="stop-color:#DFE1E9;stop-opacity:0.7825"/>
		<stop  offset="0.4303" style="stop-color:#C4C5DC"/>
		<stop  offset="0.6485" style="stop-color:#C2C3DC;stop-opacity:0.9956"/>
		<stop  offset="1" style="stop-color:#909CD0;stop-opacity:0.89"/>
	</radialGradient>
	<path fill="url(#SVGID_5_)" d="M11.224,7.67c-0.142,0-0.278,0.024-0.405,0.073c-0.469,0.166-0.802,0.61-0.802,1.133
		c0,0.645,0.508,1.172,1.149,1.206c0.019,0,0.039,0,0.058,0c0.317,0,0.611-0.127,0.825-0.332c0.235-0.215,0.381-0.527,0.381-0.874
		C12.431,8.212,11.893,7.67,11.224,7.67z"/>
	<linearGradient id="SVGID_6_" gradientUnits="userSpaceOnUse" x1="14.6511" y1="6.0591" x2="27.4043" y2="9.9581">
		<stop  offset="0.2242" style="stop-color:#E1F0F5"/>
		<stop  offset="0.3008" style="stop-color:#D9EDF5"/>
		<stop  offset="0.4167" style="stop-color:#C4E3F4"/>
		<stop  offset="0.497" style="stop-color:#B2DBF4"/>
		<stop  offset="0.7758" style="stop-color:#B2DBF4"/>
	</linearGradient>
	<path fill="url(#SVGID_6_)" d="M22.093,9.75c-0.215,0.205-0.508,0.332-0.825,0.332c-0.02,0-0.039,0-0.058,0
		c-0.642-0.034-1.149-0.562-1.149-1.206c0-0.523,0.333-0.967,0.802-1.133l-4.484-7.332v10.218c0.665,0,1.207,0.542,1.207,1.207
		c0,0.215-0.059,0.42-0.157,0.596l3.625,1.397l4.625,1.778L22.093,9.75z"/>
	<linearGradient id="SVGID_7_" gradientUnits="userSpaceOnUse" x1="15.2947" y1="17.3291" x2="25.4743" y2="14.791">
		<stop  offset="0.1455" style="stop-color:#C9CFF5;stop-opacity:0.23"/>
		<stop  offset="0.4231" style="stop-color:#E0E4F6;stop-opacity:0.6226"/>
		<stop  offset="0.69" style="stop-color:#FBFCF8"/>
	</linearGradient>
	<path fill="url(#SVGID_7_)" d="M21.052,13.829l-3.625-1.397c-0.093,0.156-0.215,0.293-0.366,0.391
		c-0.195,0.141-0.429,0.22-0.684,0.22c-0.005,0-0.005,0-0.01,0l-0.049,8.396l3.683-2.295c-0.21-0.215-0.337-0.514-0.337-0.835
		c0-0.41,0.205-0.771,0.519-0.992c0.195-0.131,0.435-0.214,0.688-0.214c0.015,0,0.034,0,0.049,0
		c0.498,0.019,0.923,0.346,1.084,0.796l3.673-2.292L21.052,13.829z"/>
	<linearGradient id="SVGID_8_" gradientUnits="userSpaceOnUse" x1="17.1394" y1="16.6719" x2="7.5318" y2="18.714">
		<stop  offset="0.297" style="stop-color:#DFE0FB"/>
		<stop  offset="0.7758" style="stop-color:#D2CBF7"/>
	</linearGradient>
	<path fill="url(#SVGID_8_)" d="M15.67,12.808c-0.133-0.092-0.24-0.21-0.323-0.347l-3.835,1.617l-4.557,1.925l3.576,2.076
		c0.103-0.548,0.581-0.962,1.153-0.977c0.01,0,0.02,0,0.029,0c0.245,0,0.474,0.072,0.665,0.199c0.327,0.215,0.542,0.586,0.542,1.007
		c0,0.365-0.161,0.688-0.42,0.913l3.82,2.217l0.049-8.396C16.109,13.043,15.865,12.955,15.67,12.808z"/>
	<linearGradient id="SVGID_9_" gradientUnits="userSpaceOnUse" x1="5.0393" y1="12.6841" x2="18.8574" y2="4.7062">
		<stop  offset="0.1636" style="stop-color:#A695FA"/>
		<stop  offset="0.5576" style="stop-color:#B9D1E4"/>
	</linearGradient>
	<path fill="url(#SVGID_9_)" d="M11.874,7.865c0.332,0.21,0.557,0.586,0.557,1.011c0,0.645-0.508,1.172-1.148,1.206
		c-0.019,0-0.039,0-0.059,0c-0.215,0-0.42-0.059-0.596-0.161l-3.673,6.082l4.557-1.925l3.835-1.617
		c-0.113-0.181-0.176-0.396-0.176-0.625c0-0.665,0.542-1.207,1.207-1.207V0.411L11.874,7.865z"/>
	<linearGradient id="SVGID_10_" gradientUnits="userSpaceOnUse" x1="16.3191" y1="24.6973" x2="26.0447" y2="24.6973">
		<stop  offset="0" style="stop-color:#C9CFF5"/>
		<stop  offset="0.1469" style="stop-color:#C8CDF6"/>
		<stop  offset="1" style="stop-color:#C6C6F8"/>
	</linearGradient>
	<polygon fill="url(#SVGID_10_)" points="26.045,17.805 16.319,31.589 16.378,23.179 	"/>
	<polygon fill="#6D89D3" points="16.378,23.179 16.319,31.589 6.955,17.967 	"/>
</g>
</svg>
