<?xml version="1.0" encoding="utf-8"?>
<!-- Generator: Adobe Illustrator 14.0.0, SVG Export Plug-In . SVG Version: 6.00 Build 43363)  -->
<!DOCTYPE svg PUBLIC "-//W3C//DTD SVG 1.1//EN" "http://www.w3.org/Graphics/SVG/1.1/DTD/svg11.dtd">
<svg version="1.1" id="图层_1" xmlns="http://www.w3.org/2000/svg" xmlns:xlink="http://www.w3.org/1999/xlink" x="0px" y="0px"
	 width="99px" height="16px" viewBox="0 0 99 16" enable-background="new 0 0 99 16" xml:space="preserve">
<g enable-background="new    ">
	<path d="M47.835,8.235c0-0.851,0.598-1.407,1.303-1.407c0.724,0,1.323,0.556,1.323,1.407c0,0.812-0.599,1.368-1.323,1.368
		C48.434,9.604,47.835,9.047,47.835,8.235z"/>
</g>
<g>
	<path d="M1.253,3.124V2.791h7.69v2.679H8.61C8.468,4.572,8.148,3.963,7.65,3.643C7.233,3.377,6.535,3.244,5.558,3.244
		c-0.391,0-0.651,0.036-0.78,0.106C4.649,3.421,4.585,3.595,4.585,3.87v3.092c0.684,0,1.177-0.125,1.479-0.373
		c0.355-0.293,0.582-0.831,0.68-1.613h0.347V9.48H6.744c-0.08-0.8-0.284-1.343-0.613-1.632C5.802,7.56,5.287,7.415,4.585,7.415
		v3.226c0,0.293,0.078,0.49,0.233,0.593s0.451,0.153,0.886,0.153c0.791,0,1.435-0.138,1.933-0.413
		c0.657-0.364,1.182-1.013,1.573-1.946h0.373L9.05,11.8H1.253v-0.333c0.453-0.045,0.742-0.106,0.866-0.187
		c0.204-0.125,0.307-0.378,0.307-0.76V4.07c0-0.4-0.116-0.667-0.347-0.8C1.91,3.172,1.635,3.124,1.253,3.124z"/>
	<path d="M13.994,5.656v0.586h-1.253v4.012c0,0.213,0.018,0.364,0.053,0.453c0.08,0.204,0.235,0.307,0.467,0.307
		c0.142,0,0.267-0.045,0.373-0.134s0.235-0.275,0.387-0.56l0.333,0.146c-0.213,0.436-0.422,0.756-0.626,0.96
		c-0.355,0.355-0.8,0.533-1.333,0.533c-0.613,0-1.044-0.195-1.293-0.587c-0.142-0.23-0.213-0.502-0.213-0.813V6.242h-0.693v-0.36
		c0.4-0.337,0.742-0.662,1.026-0.973c0.364-0.399,0.759-0.901,1.186-1.506h0.333v2.252H13.994z"/>
	<path d="M21.485,11.467V11.8h-3.132v-0.32c0.417-0.035,0.626-0.288,0.626-0.759V7.495c0-0.311-0.031-0.542-0.093-0.693
		c-0.116-0.275-0.329-0.413-0.64-0.413c-0.231,0-0.473,0.107-0.727,0.32c-0.253,0.213-0.38,0.365-0.38,0.453v3.547
		c0,0.204,0.031,0.359,0.093,0.465c0.098,0.169,0.285,0.267,0.56,0.293V11.8h-3.212v-0.32c0.275-0.053,0.453-0.115,0.533-0.187
		c0.115-0.106,0.173-0.311,0.173-0.612V3.883c0-0.293-0.044-0.48-0.133-0.56c-0.089-0.08-0.28-0.151-0.573-0.213v-0.32h2.559v3.745
		c0.32-0.373,0.631-0.64,0.933-0.799c0.302-0.16,0.626-0.24,0.973-0.24c0.453,0,0.839,0.129,1.159,0.386
		c0.417,0.337,0.626,0.833,0.626,1.49v3.298c0,0.204,0.027,0.363,0.08,0.479C21.009,11.36,21.2,11.467,21.485,11.467z"/>
	<path d="M21.991,11.8v-0.333c0.329-0.054,0.526-0.089,0.593-0.106c0.067-0.018,0.127-0.045,0.18-0.08
		c0.142-0.106,0.235-0.238,0.28-0.394s0.067-0.371,0.067-0.646V4.35c0-0.506-0.098-0.84-0.293-1
		c-0.133-0.115-0.409-0.191-0.826-0.227V2.791h4.292c0.871,0,1.586,0.125,2.146,0.373c0.897,0.4,1.346,1.093,1.346,2.079
		c0,0.338-0.066,0.653-0.2,0.946c-0.205,0.444-0.542,0.799-1.013,1.066c-0.391,0.222-0.806,0.362-1.246,0.42
		c-0.44,0.058-1.122,0.087-2.046,0.087v2.479c0,0.507,0.08,0.831,0.24,0.974c0.115,0.106,0.426,0.19,0.933,0.253V11.8H21.991z
		 M25.269,3.723v3.572c0.835,0,1.404-0.128,1.706-0.386c0.337-0.284,0.506-0.827,0.506-1.626c0-0.747-0.122-1.271-0.366-1.573
		c-0.245-0.302-0.646-0.453-1.207-0.453C25.483,3.257,25.269,3.412,25.269,3.723z"/>
	<path d="M30.254,8.748c0-0.889,0.278-1.653,0.833-2.292s1.282-0.96,2.179-0.96c0.871,0,1.588,0.309,2.152,0.926
		c0.564,0.618,0.846,1.393,0.846,2.326c0,0.906-0.278,1.672-0.833,2.299c-0.555,0.626-1.277,0.939-2.166,0.939
		c-0.906,0-1.635-0.313-2.186-0.939C30.529,10.42,30.254,9.654,30.254,8.748z M32.213,8.748c0,0.941,0.044,1.59,0.133,1.945
		c0.151,0.587,0.462,0.88,0.933,0.88c0.417,0,0.702-0.258,0.853-0.773c0.115-0.399,0.173-1.083,0.173-2.052
		c0-1.048-0.073-1.784-0.22-2.206c-0.147-0.422-0.42-0.633-0.82-0.633c-0.444,0-0.742,0.28-0.893,0.839
		C32.266,7.148,32.213,7.815,32.213,8.748z"/>
	<path d="M46.007,5.656v0.32c-0.16,0.036-0.276,0.08-0.347,0.133c-0.106,0.089-0.213,0.267-0.32,0.533l-2.066,5.344h-0.306
		l-1.333-4.038h-0.066l-1.626,4.038h-0.32l-1.973-4.974c-0.178-0.452-0.305-0.727-0.38-0.824c-0.076-0.098-0.202-0.164-0.38-0.2
		V5.656h2.958v0.32c-0.151,0.018-0.273,0.051-0.366,0.1s-0.14,0.148-0.14,0.3c0,0.098,0.058,0.302,0.173,0.613
		c0.354,0.906,0.669,1.728,0.944,2.465l0.903-2.28l-0.278-0.868C41.041,6.2,40.992,6.127,40.94,6.088s-0.199-0.072-0.437-0.099
		V5.656h3.119v0.333c-0.213,0-0.373,0.022-0.48,0.066c-0.106,0.044-0.16,0.133-0.16,0.266c0,0.088,0.062,0.358,0.187,0.81
		c0.4,1.443,0.604,2.186,0.613,2.231c0.24-0.629,0.404-1.054,0.493-1.275c0.382-0.965,0.573-1.5,0.573-1.606
		c0-0.194-0.049-0.318-0.146-0.372c-0.098-0.053-0.262-0.093-0.493-0.12V5.656H46.007z"/>
	<path d="M53.084,3.124V2.791h7.557v2.679h-0.319c-0.169-0.791-0.409-1.333-0.72-1.626c-0.427-0.4-1.169-0.6-2.226-0.6
		c-0.382,0-0.638,0.036-0.767,0.106c-0.129,0.071-0.193,0.245-0.193,0.52v3.092c0.746,0,1.271-0.195,1.573-0.586
		c0.187-0.249,0.342-0.715,0.466-1.399h0.333V9.48h-0.333c-0.115-0.87-0.333-1.433-0.652-1.686c-0.32-0.253-0.782-0.38-1.387-0.38
		v3.105c0,0.408,0.125,0.675,0.373,0.8c0.195,0.098,0.561,0.146,1.093,0.146V11.8h-4.798v-0.333
		c0.453-0.045,0.742-0.106,0.866-0.187c0.205-0.125,0.307-0.378,0.307-0.76V4.07c0-0.4-0.115-0.667-0.346-0.8
		C53.742,3.172,53.466,3.124,53.084,3.124z"/>
	<path d="M64.412,11.479v0.32h-3.186v-0.32c0.284-0.07,0.462-0.137,0.533-0.199c0.115-0.106,0.174-0.307,0.174-0.6V6.762
		c0-0.284-0.047-0.473-0.141-0.566c-0.093-0.093-0.282-0.167-0.566-0.22v-0.32h2.56v5.065c0,0.239,0.04,0.419,0.12,0.539
		C63.985,11.38,64.154,11.453,64.412,11.479z M61.813,3.63c0-0.284,0.098-0.528,0.293-0.733c0.195-0.204,0.444-0.307,0.746-0.307
		c0.284,0,0.526,0.1,0.727,0.3c0.2,0.2,0.3,0.447,0.3,0.74c0,0.293-0.098,0.538-0.293,0.733c-0.195,0.196-0.439,0.293-0.733,0.293
		c-0.302,0-0.551-0.098-0.746-0.293C61.911,4.167,61.813,3.923,61.813,3.63z"/>
	<path d="M71.902,11.467V11.8H68.77v-0.32c0.417-0.035,0.626-0.288,0.626-0.759V7.495c0-0.311-0.031-0.542-0.093-0.693
		c-0.116-0.275-0.329-0.413-0.64-0.413c-0.231,0-0.474,0.106-0.727,0.319c-0.253,0.212-0.38,0.363-0.38,0.452v3.549
		c0,0.204,0.031,0.359,0.093,0.465c0.098,0.169,0.285,0.267,0.561,0.293V11.8h-3.212v-0.32c0.275-0.053,0.453-0.115,0.532-0.187
		c0.116-0.106,0.174-0.311,0.174-0.612V6.762c0-0.293-0.047-0.486-0.14-0.58c-0.094-0.093-0.282-0.162-0.566-0.207v-0.32h2.559
		v0.959c0.186-0.284,0.39-0.511,0.61-0.68c0.381-0.293,0.815-0.44,1.302-0.44c0.451,0,0.837,0.129,1.155,0.386
		c0.416,0.337,0.624,0.833,0.624,1.49v3.338c0,0.23,0.027,0.395,0.08,0.492C71.427,11.378,71.618,11.467,71.902,11.467z"/>
	<path d="M78.432,10.947l0.2,0.279c-0.204,0.24-0.427,0.427-0.666,0.56c-0.24,0.134-0.507,0.2-0.8,0.2
		c-0.409,0-0.702-0.106-0.88-0.319c-0.098-0.116-0.178-0.32-0.24-0.613c-0.373,0.373-0.795,0.635-1.266,0.786
		c-0.303,0.098-0.587,0.146-0.854,0.146c-0.373,0-0.697-0.111-0.973-0.333c-0.329-0.267-0.493-0.631-0.493-1.093
		c0-0.622,0.36-1.138,1.08-1.546c0.462-0.267,1.297-0.582,2.505-0.947V7.095c0-0.382-0.071-0.662-0.213-0.84
		c-0.178-0.222-0.498-0.333-0.96-0.333c-0.222,0-0.408,0.051-0.56,0.153s-0.227,0.211-0.227,0.327c0,0.071,0.066,0.191,0.2,0.359
		c0.133,0.169,0.2,0.352,0.2,0.547c0,0.231-0.099,0.422-0.294,0.573c-0.15,0.116-0.351,0.173-0.6,0.173
		c-0.284,0-0.502-0.075-0.653-0.227c-0.15-0.151-0.227-0.377-0.227-0.68c0-0.453,0.209-0.835,0.627-1.146
		c0.453-0.338,1.075-0.507,1.866-0.507c0.79,0,1.433,0.153,1.926,0.46s0.739,0.762,0.739,1.366V10.8
		c0,0.089,0.016,0.167,0.047,0.233c0.031,0.067,0.113,0.101,0.246,0.101c0.054,0,0.098-0.019,0.134-0.054L78.432,10.947z
		 M76.047,10.467V8.534c-0.492,0.107-0.889,0.305-1.188,0.594c-0.301,0.288-0.45,0.628-0.45,1.02c0,0.23,0.058,0.438,0.175,0.619
		c0.116,0.183,0.286,0.273,0.511,0.273c0.205,0,0.398-0.066,0.577-0.2C75.76,10.778,75.885,10.653,76.047,10.467z"/>
	<path d="M85.976,11.467V11.8h-3.132v-0.32c0.417-0.035,0.626-0.288,0.626-0.759V7.495c0-0.311-0.031-0.542-0.093-0.693
		c-0.116-0.275-0.329-0.413-0.64-0.413c-0.231,0-0.474,0.106-0.727,0.319c-0.253,0.212-0.38,0.363-0.38,0.452v3.549
		c0,0.204,0.031,0.359,0.093,0.465c0.098,0.169,0.285,0.267,0.561,0.293V11.8h-3.212v-0.32c0.275-0.053,0.453-0.115,0.532-0.187
		c0.116-0.106,0.174-0.311,0.174-0.612V6.762c0-0.293-0.047-0.486-0.14-0.58c-0.094-0.093-0.282-0.162-0.566-0.207v-0.32h2.559
		v0.959c0.186-0.284,0.39-0.511,0.61-0.68c0.381-0.293,0.815-0.44,1.302-0.44c0.451,0,0.837,0.129,1.155,0.386
		c0.416,0.337,0.624,0.833,0.624,1.49v3.338c0,0.23,0.027,0.395,0.08,0.492C85.501,11.378,85.692,11.467,85.976,11.467z"/>
	<path d="M91.694,10.347l0.239,0.24c-0.319,0.444-0.695,0.789-1.126,1.033s-0.904,0.366-1.419,0.366
		c-0.836,0-1.52-0.298-2.053-0.893c-0.533-0.596-0.8-1.315-0.8-2.159c0-1.191,0.364-2.093,1.093-2.706
		c0.578-0.489,1.262-0.733,2.053-0.733c0.524,0,0.986,0.12,1.386,0.36c0.453,0.276,0.68,0.64,0.68,1.093
		c0,0.284-0.084,0.498-0.253,0.64s-0.387,0.213-0.653,0.213c-0.258,0-0.446-0.082-0.566-0.246c-0.12-0.165-0.18-0.54-0.18-1.126
		c0-0.178-0.058-0.309-0.173-0.393c-0.116-0.084-0.24-0.126-0.373-0.126c-0.347,0-0.622,0.191-0.827,0.573
		c-0.204,0.382-0.307,0.938-0.307,1.666c0,0.907,0.174,1.624,0.521,2.153c0.347,0.528,0.79,0.793,1.332,0.793
		c0.338,0,0.631-0.08,0.88-0.24C91.299,10.756,91.48,10.587,91.694,10.347z"/>
	<path d="M97.477,10.134l0.32,0.187c-0.4,0.613-0.802,1.044-1.206,1.293s-0.882,0.373-1.433,0.373c-0.738,0-1.355-0.258-1.853-0.772
		c-0.569-0.596-0.854-1.427-0.854-2.493c0-0.959,0.262-1.736,0.786-2.332c0.524-0.595,1.178-0.893,1.96-0.893
		c0.781,0,1.386,0.253,1.813,0.76c0.479,0.569,0.72,1.329,0.72,2.279h-3.359c0,0.685,0.107,1.24,0.32,1.666
		c0.275,0.552,0.702,0.826,1.279,0.826c0.267,0,0.514-0.063,0.74-0.192S97.193,10.472,97.477,10.134z M94.305,8.042h1.786
		c0-0.347-0.007-0.633-0.021-0.86c-0.013-0.227-0.046-0.438-0.1-0.633c-0.053-0.195-0.124-0.342-0.213-0.44
		c-0.125-0.133-0.293-0.2-0.507-0.2c-0.293,0-0.511,0.125-0.653,0.373C94.403,6.62,94.305,7.207,94.305,8.042z"/>
</g>
</svg>
