<?xml version="1.0" encoding="utf-8"?>
<!-- Generator: Adobe Illustrator 14.0.0, SVG Export Plug-In . SVG Version: 6.00 Build 43363)  -->
<!DOCTYPE svg PUBLIC "-//W3C//DTD SVG 1.1//EN" "http://www.w3.org/Graphics/SVG/1.1/DTD/svg11.dtd">
<svg version="1.1" id="图层_1" xmlns="http://www.w3.org/2000/svg" xmlns:xlink="http://www.w3.org/1999/xlink" x="0px" y="0px"
	 width="99px" height="16px" viewBox="0 0 99 16" enable-background="new 0 0 99 16" xml:space="preserve">
<g enable-background="new    ">
	<path d="M1.549,4.638c0-0.231-0.03-0.417-0.091-0.554c-0.06-0.129-0.172-0.193-0.335-0.193c-0.086,0-0.154,0-0.207,0V3.283h2.335
		H6.41L6.733,5.67H6.127C5.981,4.965,5.806,4.491,5.598,4.25C5.384,4.009,5.186,3.889,5.005,3.889H3.251
		c-0.173,0-0.297,0.064-0.375,0.193C2.792,4.221,2.748,4.406,2.748,4.638v2.929h0.929c0.231,0,0.399-0.077,0.502-0.232
		c0.104-0.172,0.155-0.559,0.155-1.161h0.607v3.444H4.334c0-0.696-0.056-1.113-0.167-1.251c-0.096-0.138-0.259-0.205-0.49-0.205
		H2.748V11.5c0,0.216,0.03,0.378,0.091,0.49c0.078,0.129,0.21,0.194,0.399,0.194h1.715c0.232-0.009,0.431-0.095,0.593-0.258
		c0.19-0.198,0.418-0.753,0.685-1.665h0.607L6.398,12.79H4.953H3.239H0.916v-0.605c0.069,0,0.129,0,0.181,0
		c0.129-0.009,0.236-0.069,0.322-0.182c0.086-0.12,0.129-0.287,0.129-0.503V4.638z"/>
	<path d="M10.694,11.475c0.009,0.258,0.043,0.43,0.103,0.516c0.086,0.112,0.211,0.169,0.375,0.169c0.095,0,0.224-0.02,0.386-0.054
		c0.146-0.042,0.288-0.132,0.426-0.271h0.606c-0.301,0.49-0.546,0.791-0.735,0.903c-0.25,0.137-0.56,0.207-0.929,0.207
		c-0.439,0-0.799-0.134-1.084-0.4c-0.233-0.214-0.349-0.571-0.349-1.07V7.218H8.72V6.611c0.335,0,0.636-0.219,0.902-0.658
		c0.31-0.507,0.464-1.036,0.464-1.587h0.607v2.245h1.509v0.606h-1.509V11.475z"/>
	<path d="M14.925,4.755c0-0.138-0.025-0.25-0.077-0.335c-0.078-0.053-0.199-0.078-0.362-0.078V3.736
		c0.421-0.111,0.813-0.262,1.174-0.452h0.464v3.973c0.095-0.12,0.185-0.224,0.271-0.309c0.327-0.311,0.713-0.465,1.161-0.465
		c0.542,0.008,0.972,0.184,1.29,0.528c0.327,0.378,0.49,0.804,0.49,1.276v3.471c0.008,0.11,0.03,0.21,0.064,0.296
		c0.061,0.096,0.172,0.142,0.336,0.142v0.606l-2.013-0.015v-0.605c0.199,0,0.314-0.051,0.35-0.154
		c0.042-0.068,0.064-0.159,0.064-0.271V8.289c0-0.241-0.052-0.443-0.155-0.606c-0.146-0.233-0.349-0.348-0.607-0.348
		c-0.224,0-0.477,0.108-0.761,0.322c-0.164,0.113-0.327,0.276-0.49,0.49v3.509c0.009,0.172,0.03,0.3,0.064,0.387
		c0.052,0.096,0.167,0.142,0.349,0.142v0.605h-2.051v-0.605c0.19-0.009,0.31-0.056,0.362-0.142c0.052-0.095,0.077-0.224,0.077-0.387
		V4.755z"/>
	<path d="M21.284,4.07c-0.061-0.121-0.224-0.18-0.491-0.18V3.283h2.36c0.31,0,0.598,0,0.865,0c0.464,0,0.908,0.108,1.329,0.323
		c0.37,0.208,0.657,0.546,0.864,1.02c0.171,0.37,0.257,0.761,0.257,1.173c-0.009,0.912-0.275,1.591-0.8,2.039
		c-0.422,0.377-1.11,0.566-2.064,0.566h-1.019v3.392c0,0.104,0.026,0.194,0.078,0.271c0.052,0.078,0.249,0.118,0.593,0.118v0.605
		h-2.49v-0.605c0.311,0,0.491-0.04,0.543-0.118c0.051-0.076,0.076-0.167,0.076-0.271V4.51C21.379,4.346,21.344,4.199,21.284,4.07z
		 M22.586,7.798h1.02c0.525,0,0.942-0.193,1.251-0.581c0.267-0.318,0.4-0.791,0.4-1.419c-0.01-0.334-0.069-0.648-0.181-0.941
		c-0.129-0.309-0.301-0.545-0.516-0.709c-0.224-0.171-0.468-0.257-0.735-0.257c-0.207,0-0.43,0-0.671,0
		c-0.284,0-0.442,0.057-0.477,0.168c-0.061,0.137-0.091,0.287-0.091,0.452V7.798z"/>
	<path d="M28.675,7.193c0.456-0.61,0.998-0.917,1.625-0.917c0.688,0.009,1.243,0.327,1.665,0.955
		c0.438,0.679,0.657,1.47,0.657,2.375c0,1.058-0.271,1.913-0.813,2.567c-0.429,0.514-0.934,0.772-1.509,0.772
		c-0.645,0-1.164-0.248-1.56-0.747c-0.515-0.688-0.775-1.553-0.775-2.593C27.965,8.701,28.202,7.897,28.675,7.193z M29.165,9.604
		c0,0.938,0.143,1.65,0.427,2.142c0.206,0.345,0.442,0.515,0.708,0.515c0.259,0,0.482-0.171,0.671-0.515
		c0.301-0.499,0.452-1.212,0.452-2.142c0-0.8-0.129-1.463-0.387-1.987c-0.224-0.438-0.47-0.659-0.736-0.659
		c-0.266,0-0.52,0.219-0.761,0.659C29.29,8.161,29.165,8.822,29.165,9.604z"/>
	<path d="M34.222,7.527c-0.052-0.137-0.107-0.262-0.167-0.374c-0.052-0.086-0.134-0.129-0.246-0.129V6.418h1.884v0.607
		c-0.112,0.008-0.198,0.043-0.258,0.102c-0.06,0.078-0.063,0.211-0.012,0.4l0.684,2.864l0.452-2.244l-0.168-0.621
		c-0.06-0.154-0.116-0.275-0.167-0.361c-0.061-0.095-0.134-0.141-0.22-0.141V6.418h1.806v0.607c-0.104,0-0.186,0.043-0.246,0.129
		c-0.042,0.069-0.035,0.194,0.026,0.374l0.592,2.865l0.516-2.865c0.035-0.189,0.021-0.323-0.038-0.399
		c-0.061-0.068-0.159-0.103-0.297-0.103V6.418h1.458v0.607c-0.154,0-0.276,0.052-0.361,0.154c-0.086,0.095-0.142,0.21-0.168,0.348
		l-1.161,5.212v0.051h-0.348l-0.928-3.469l-0.813,3.418v0.051h-0.348L34.222,7.527z"/>
</g>
<g enable-background="new    ">
	<path d="M45.335,8.228c0-0.527,0.37-0.871,0.806-0.871c0.449,0,0.82,0.344,0.82,0.871c0,0.503-0.371,0.847-0.82,0.847
		C45.706,9.075,45.335,8.731,45.335,8.228z"/>
</g>
<g enable-background="new    ">
	<path d="M53.173,4.638c0-0.231-0.029-0.417-0.091-0.554c-0.06-0.129-0.172-0.193-0.335-0.193c-0.086,0-0.156,0-0.207,0V3.283h2.335
		h3.161l0.323,2.387h-0.607c-0.146-0.705-0.321-1.179-0.529-1.419c-0.214-0.241-0.412-0.362-0.592-0.362h-1.754
		c-0.172,0-0.297,0.064-0.373,0.193c-0.088,0.137-0.132,0.323-0.132,0.554v2.928h0.93c0.233,0,0.4-0.077,0.504-0.232
		c0.104-0.172,0.155-0.558,0.155-1.161h0.605v3.443h-0.605c0-0.696-0.058-1.113-0.168-1.251c-0.096-0.136-0.259-0.203-0.491-0.203
		h-0.931V11.5c0,0.216,0.039,0.378,0.117,0.49c0.087,0.129,0.248,0.194,0.489,0.194v0.605H52.54v-0.605c0.069,0,0.154,0,0.259,0
		c0.076-0.009,0.158-0.069,0.245-0.182c0.087-0.12,0.129-0.287,0.129-0.503V4.638z"/>
	<path d="M62.048,6.405h0.606v5.313c0.008,0.147,0.043,0.258,0.104,0.336c0.077,0.085,0.263,0.13,0.554,0.13v0.605h-2.579v-0.605
		c0.31,0,0.508-0.045,0.592-0.13c0.086-0.086,0.131-0.198,0.131-0.336V7.927c0-0.12-0.045-0.207-0.131-0.257
		c-0.095-0.044-0.185-0.064-0.271-0.064c-0.155,0-0.262,0-0.322,0V6.999C60.887,6.999,61.325,6.801,62.048,6.405z M61.959,3.322
		c0.197,0,0.363,0.069,0.501,0.206c0.156,0.155,0.232,0.323,0.232,0.503c-0.009,0.25-0.082,0.443-0.219,0.581
		c-0.155,0.146-0.325,0.218-0.514,0.218c-0.209-0.008-0.389-0.081-0.542-0.218c-0.148-0.146-0.221-0.34-0.221-0.581
		c0-0.18,0.068-0.348,0.207-0.503C61.565,3.392,61.751,3.322,61.959,3.322z"/>
	<path d="M66.575,8.07c-0.009-0.181-0.03-0.31-0.063-0.388C66.469,7.615,66.39,7.58,66.28,7.58V6.973
		c0.206,0,0.503-0.181,0.89-0.542h0.606v0.98c0.197-0.285,0.387-0.481,0.567-0.593c0.249-0.172,0.516-0.258,0.801-0.258
		c0.472,0,0.867,0.172,1.186,0.516c0.336,0.37,0.503,0.856,0.503,1.458v3.146c0,0.232,0.018,0.364,0.053,0.399
		c0.043,0.069,0.121,0.104,0.231,0.104v0.605h-1.806v-0.605c0.13,0,0.21-0.03,0.245-0.092c0.052-0.06,0.078-0.198,0.078-0.413V8.533
		c-0.008-0.523-0.069-0.89-0.181-1.096c-0.104-0.181-0.249-0.271-0.439-0.271c-0.222,0-0.45,0.095-0.681,0.283
		c-0.209,0.172-0.394,0.38-0.556,0.621v3.534c0.008,0.284,0.029,0.451,0.063,0.503c0.035,0.052,0.107,0.077,0.22,0.077v0.605h-1.779
		v-0.605c0.119,0,0.197-0.029,0.231-0.091c0.043-0.043,0.063-0.205,0.063-0.489V8.07H66.575z"/>
	<path d="M76.495,6.844c0.37,0.37,0.555,0.818,0.555,1.342v3.675c0.009,0.189,0.019,0.314,0.025,0.375
		c0.025,0.068,0.064,0.103,0.117,0.103c0.051-0.008,0.116-0.146,0.192-0.412l0.258,0.167c-0.146,0.567-0.418,0.852-0.813,0.852
		c-0.302,0-0.542-0.091-0.723-0.271c-0.121-0.12-0.198-0.287-0.232-0.501c-0.138,0.145-0.262,0.271-0.374,0.372
		c-0.353,0.267-0.727,0.4-1.12,0.4c-0.476,0-0.857-0.155-1.149-0.465c-0.302-0.301-0.452-0.688-0.452-1.16
		c0-0.732,0.301-1.308,0.903-1.729c0.481-0.354,1.203-0.547,2.167-0.582V8.186c0-0.414-0.063-0.727-0.194-0.941
		c-0.153-0.241-0.339-0.363-0.554-0.363c-0.207,0.009-0.354,0.082-0.438,0.22c-0.112,0.163-0.164,0.43-0.155,0.799
		c-0.009,0.164-0.096,0.31-0.259,0.437c-0.171,0.13-0.364,0.194-0.579,0.194c-0.19-0.009-0.354-0.069-0.491-0.18
		c-0.12-0.112-0.181-0.262-0.181-0.452c0-0.31,0.194-0.646,0.582-1.006c0.438-0.413,0.945-0.62,1.522-0.62
		C75.661,6.286,76.125,6.475,76.495,6.844z M75.85,9.631c-0.585,0.067-1.037,0.237-1.353,0.504
		c-0.346,0.326-0.518,0.722-0.518,1.187c0,0.344,0.078,0.61,0.232,0.799c0.111,0.146,0.288,0.22,0.528,0.22
		c0.232,0,0.495-0.116,0.788-0.35c0.103-0.095,0.209-0.21,0.321-0.347V9.631L75.85,9.631z"/>
	<path d="M79.784,8.07c-0.009-0.181-0.03-0.31-0.064-0.388c-0.043-0.067-0.12-0.103-0.232-0.103V6.973
		c0.208,0,0.503-0.181,0.891-0.542h0.606v0.98c0.197-0.285,0.387-0.481,0.566-0.593c0.25-0.172,0.518-0.258,0.801-0.258
		c0.473,0,0.868,0.172,1.187,0.516c0.335,0.37,0.502,0.855,0.502,1.457v3.146c0,0.234,0.018,0.365,0.053,0.4
		c0.042,0.069,0.121,0.103,0.231,0.103v0.605h-1.805v-0.605c0.13,0,0.21-0.029,0.245-0.091c0.052-0.059,0.077-0.197,0.077-0.412
		V8.533c-0.008-0.523-0.068-0.89-0.18-1.096c-0.103-0.181-0.248-0.271-0.438-0.271c-0.224,0-0.453,0.095-0.684,0.283
		c-0.208,0.172-0.393,0.38-0.555,0.621v3.534c0.009,0.284,0.029,0.451,0.064,0.503c0.033,0.052,0.106,0.077,0.219,0.077v0.605
		h-1.782v-0.605c0.12,0,0.198-0.029,0.232-0.091c0.042-0.043,0.064-0.205,0.064-0.489V8.07z"/>
	<path d="M90.297,6.754c0.311,0.24,0.465,0.506,0.465,0.799c0,0.258-0.068,0.457-0.206,0.594c-0.112,0.112-0.263,0.167-0.452,0.167
		c-0.213-0.009-0.391-0.081-0.528-0.22c-0.138-0.154-0.206-0.334-0.206-0.542c-0.01-0.224-0.082-0.392-0.22-0.503
		c-0.121-0.112-0.322-0.168-0.606-0.168c-0.403,0.009-0.74,0.275-1.007,0.8c-0.231,0.516-0.349,1.192-0.349,2.026
		c0,0.714,0.142,1.315,0.426,1.806c0.327,0.551,0.701,0.825,1.122,0.825c0.302,0,0.58-0.064,0.839-0.194
		c0.242-0.136,0.516-0.403,0.825-0.799h0.606c-0.404,0.663-0.791,1.096-1.161,1.303c-0.369,0.198-0.739,0.297-1.109,0.297
		c-0.817-0.008-1.496-0.354-2.037-1.031c-0.481-0.638-0.723-1.372-0.723-2.206c0-0.946,0.248-1.768,0.748-2.465
		c0.481-0.645,1.178-0.968,2.089-0.968C89.363,6.276,89.858,6.437,90.297,6.754z"/>
	<path d="M93.29,7.103c0.481-0.551,1.113-0.826,1.896-0.826c0.73,0,1.319,0.31,1.767,0.929c0.413,0.593,0.615,1.368,0.606,2.322
		h-3.805c0,0.938,0.142,1.664,0.426,2.181c0.258,0.422,0.593,0.632,1.007,0.632c0.352-0.009,0.674-0.121,0.967-0.336
		c0.293-0.213,0.585-0.606,0.878-1.174l0.528,0.311c-0.422,0.73-0.79,1.203-1.109,1.418c-0.353,0.259-0.774,0.389-1.264,0.389
		c-0.775,0-1.393-0.271-1.858-0.813c-0.516-0.586-0.772-1.458-0.772-2.62C92.554,8.533,92.8,7.73,93.29,7.103z M96.373,8.934
		c-0.009-0.49-0.108-0.955-0.297-1.393c-0.197-0.438-0.495-0.658-0.89-0.658c-0.448,0.009-0.805,0.238-1.07,0.684
		c-0.199,0.361-0.315,0.817-0.35,1.367H96.373z"/>
</g>
</svg>
